<?xml version="1.0" encoding="UTF-8"?>
<svg version="1.1" xmlns="http://www.w3.org/2000/svg" width="40" height="52">
<path d="M0 0 C13.2 0 26.4 0 40 0 C40.0825 5.775 40.165 11.55 40.25 17.5 C40.28641602 19.30662109 40.32283203 21.11324219 40.36035156 22.97460938 C40.37205057 24.43097755 40.38223952 25.88735897 40.390625 27.34375 C40.41108887 28.08012695 40.43155273 28.81650391 40.45263672 29.57519531 C40.45689619 36.00699325 38.49023394 41.17118162 34.21875 46.0234375 C33.6515625 46.46945313 33.084375 46.91546875 32.5 47.375 C31.9328125 47.83648437 31.365625 48.29796875 30.78125 48.7734375 C25.62401983 52.3246881 21.17974291 52.88414996 15 52 C8.6076071 49.58034424 4.47100944 44.74097755 1 39 C-0.25273567 35.24179299 -0.12392962 31.74510785 -0.09765625 27.83203125 C-0.09664917 27.12735718 -0.09564209 26.42268311 -0.09460449 25.69665527 C-0.08937914 23.06858692 -0.07541786 20.4405418 -0.0625 17.8125 C-0.041875 11.934375 -0.02125 6.05625 0 0 Z " fill="#E7E7E4" transform="translate(0,0)"/>
<path d="M0 0 C0 0.66 0 1.32 0 2 C1.051875 2.103125 2.10375 2.20625 3.1875 2.3125 C9.20657698 3.39790732 9.20657698 3.39790732 12 6 C12.64184511 9.57250438 12.46758761 13.0727657 12.3125 16.6875 C12.28994141 17.67556641 12.26738281 18.66363281 12.24414062 19.68164062 C12.18517988 22.12261559 12.10295048 24.56054868 12 27 C10.68 27.33 9.36 27.66 8 28 C7.67 27.34 7.34 26.68 7 26 C6.34 25.67 5.68 25.34 5 25 C5 26.32 5 27.64 5 29 C5.99 29 6.98 29 8 29 C8.04254356 30.99954746 8.04080783 33.00041636 8 35 C6.17883997 36.82116003 3.69328236 36.1323508 1.2734375 36.13671875 C0.52320313 36.13285156 -0.22703125 36.12898438 -1 36.125 C-2.12535156 36.13080078 -2.12535156 36.13080078 -3.2734375 36.13671875 C-8.87338947 36.12661053 -8.87338947 36.12661053 -10 35 C-9.95875 34.030625 -9.9175 33.06125 -9.875 32.0625 C-9.91625 31.051875 -9.9575 30.04125 -10 29 C-10.99 28.34 -11.98 27.68 -13 27 C-13.85600859 23.60686276 -13.88347587 20.11248305 -14.0625 16.625 C-14.14693359 15.6659375 -14.23136719 14.706875 -14.31835938 13.71875 C-14.46699506 11.01696725 -14.51356715 8.65792518 -14 6 C-10.23370974 2.52261624 -5.25454221 0 0 0 Z " fill="#898405" transform="translate(21,3)"/>
<path d="M0 0 C11.88 0 23.76 0 36 0 C36.061875 4.805625 36.12375 9.61125 36.1875 14.5625 C36.22846802 16.81622437 36.22846802 16.81622437 36.27026367 19.11547852 C36.27775635 20.31615967 36.28524902 21.51684082 36.29296875 22.75390625 C36.3086792 23.97408447 36.32438965 25.1942627 36.34057617 26.45141602 C35.86804122 31.37492537 34.58192465 35.41807535 31 39 C30.01 38.34 29.02 37.68 28 37 C27.6875 33.5 27.6875 33.5 28 30 C28.66 29.34 29.32 28.68 30 28 C30.27741245 25.76964703 30.27741245 25.76964703 30.1953125 23.2109375 C30.18886719 22.26992188 30.18242188 21.32890625 30.17578125 20.359375 C30.15064453 18.88210937 30.15064453 18.88210937 30.125 17.375 C30.11597656 16.38242187 30.10695313 15.38984375 30.09765625 14.3671875 C30.07404249 11.91135612 30.0381707 9.45564826 30 7 C26.37 5.68 22.74 4.36 19 3 C19 2.34 19 1.68 19 1 C17.01959844 1.8094854 15.04070923 2.62267169 13.0625 3.4375 C11.40927734 4.11619141 11.40927734 4.11619141 9.72265625 4.80859375 C7.13431084 5.74424608 7.13431084 5.74424608 6 7 C5.97114282 8.62499626 6.01320787 10.25137566 6.0859375 11.875 C6.12976563 12.85984375 6.17359375 13.8446875 6.21875 14.859375 C6.2703125 15.89578125 6.321875 16.9321875 6.375 18 C6.41882813 19.03640625 6.46265625 20.0728125 6.5078125 21.140625 C6.29354949 25.9243833 6.29354949 25.9243833 8 30 C8.04092937 32.33297433 8.04241723 34.66705225 8 37 C6.68 37.66 5.36 38.32 4 39 C-0.80527491 31.11355248 -0.47071525 23.43359978 -0.25 14.4375 C-0.1675 9.673125 -0.085 4.90875 0 0 Z " fill="#F8F127" transform="translate(2,2)"/>
<path d="M0 0 C0 0.66 0 1.32 0 2 C1.051875 2.103125 2.10375 2.20625 3.1875 2.3125 C9.23560209 3.40314136 9.23560209 3.40314136 12 6 C12.43089621 8.79530105 12.23394046 11.14592635 12 14 C10.68 13.67 9.36 13.34 8 13 C8 11.02 8 9.04 8 7 C6.64381501 8.12534105 6.64381501 8.12534105 6.9375 11.0625 C6.958125 12.031875 6.97875 13.00125 7 14 C7.99 14.33 8.98 14.66 10 15 C9.67 16.65 9.34 18.3 9 20 C8.01 19.34 7.02 18.68 6 18 C6 19.32 6 20.64 6 22 C4.5 20.625 4.5 20.625 3 19 C3 17 3 17 4.5 15.375 C4.995 14.92125 5.49 14.4675 6 14 C5.34 13.67 4.68 13.34 4 13 C3.67 12.67 3.34 12.34 3 12 C2.67 13.32 2.34 14.64 2 16 C1.67 15.34 1.34 14.68 1 14 C1.33 13.01 1.66 12.02 2 11 C2.99 11 3.98 11 5 11 C5 10.34 5 9.68 5 9 C3.68 9.33 2.36 9.66 1 10 C1 9.34 1 8.68 1 8 C0.21625 8.185625 -0.5675 8.37125 -1.375 8.5625 C-4 9 -4 9 -6 8 C-6.19335938 8.61488281 -6.38671875 9.22976563 -6.5859375 9.86328125 C-6.84632812 10.67152344 -7.10671875 11.47976563 -7.375 12.3125 C-7.63023438 13.11300781 -7.88546875 13.91351563 -8.1484375 14.73828125 C-9 17 -9 17 -11 20 C-10.69814573 22.95817184 -10.33281171 25.33437658 -9 28 C-10.32 27.67 -11.64 27.34 -13 27 C-13.34242942 23.58643466 -13.61496917 20.17075035 -13.875 16.75 C-13.97296875 15.78191406 -14.0709375 14.81382813 -14.171875 13.81640625 C-14.35958905 11.09455248 -14.45602452 8.69146131 -14 6 C-10.24920456 2.51186531 -5.24959137 0 0 0 Z " fill="#5A5A4A" transform="translate(21,3)"/>
<path d="M0 0 C5.28 0 10.56 0 16 0 C13.90464017 2.09535983 12.68072225 2.61158267 9.9375 3.5625 C7.23198802 4.39744333 7.23198802 4.39744333 5 6 C4.97114282 7.62499626 5.01320787 9.25137566 5.0859375 10.875 C5.12976563 11.85984375 5.17359375 12.8446875 5.21875 13.859375 C5.2703125 14.89578125 5.321875 15.9321875 5.375 17 C5.41882813 18.03640625 5.46265625 19.0728125 5.5078125 20.140625 C5.29354949 24.9243833 5.29354949 24.9243833 7 29 C7.04092937 31.33297433 7.04241723 33.66705225 7 36 C5.68 36.66 4.36 37.32 3 38 C0.2271392 33.27302391 -0.35839768 29.86647303 -0.29296875 24.4140625 C-0.28872391 23.71227875 -0.28447906 23.010495 -0.28010559 22.28744507 C-0.26343599 20.0662244 -0.22580872 17.84594212 -0.1875 15.625 C-0.17243788 14.11069027 -0.15875216 12.59636619 -0.14648438 11.08203125 C-0.11613398 7.38737659 -0.05739795 3.69472708 0 0 Z " fill="#F5EC05" transform="translate(3,3)"/>
<path d="M0 0 C13.2 0 26.4 0 40 0 C40.0825 5.775 40.165 11.55 40.25 17.5 C40.28641602 19.30662109 40.32283203 21.11324219 40.36035156 22.97460938 C40.37205057 24.43097755 40.38223952 25.88735897 40.390625 27.34375 C40.41108887 28.08012695 40.43155273 28.81650391 40.45263672 29.57519531 C40.45689619 36.00699325 38.49023394 41.17118162 34.21875 46.0234375 C33.6515625 46.46945313 33.084375 46.91546875 32.5 47.375 C31.9328125 47.83648437 31.365625 48.29796875 30.78125 48.7734375 C25.62401983 52.3246881 21.17974291 52.88414996 15 52 C8.6076071 49.58034424 4.47100944 44.74097755 1 39 C-0.25273567 35.24179299 -0.12392962 31.74510785 -0.09765625 27.83203125 C-0.09664917 27.12735718 -0.09564209 26.42268311 -0.09460449 25.69665527 C-0.08937914 23.06858692 -0.07541786 20.4405418 -0.0625 17.8125 C-0.041875 11.934375 -0.02125 6.05625 0 0 Z M1 1 C0.9175 6.28 0.835 11.56 0.75 17 C0.71358398 18.65 0.67716797 20.3 0.63964844 22 C0.54276332 29.55017097 0.64126041 35.53900053 5 42 C5.598125 42.9075 6.19625 43.815 6.8125 44.75 C10.82966754 48.88194376 14.28296962 50.72305962 19.875 51.625 C25.18694778 51.31556615 29.14297445 48.48234307 33 45 C38.0709222 38.71253827 39.12945403 33.62241563 39.09765625 25.609375 C39.09515869 24.31999023 39.09266113 23.03060547 39.09008789 21.70214844 C39.08098389 20.06793945 39.07187988 18.43373047 39.0625 16.75 C39.041875 11.5525 39.02125 6.355 39 1 C26.46 1 13.92 1 1 1 Z " fill="#353637" transform="translate(0,0)"/>
<path d="M0 0 C0.66 0 1.32 0 2 0 C2 1.98 2 3.96 2 6 C3.32 6.33 4.64 6.66 6 7 C6 11.29 6 15.58 6 20 C5.34 20.33 4.68 20.66 4 21 C4.33 18.69 4.66 16.38 5 14 C4.45730469 14.3609375 3.91460937 14.721875 3.35546875 15.09375 C2.64003906 15.5578125 1.92460937 16.021875 1.1875 16.5 C0.47980469 16.9640625 -0.22789063 17.428125 -0.95703125 17.90625 C-3 19 -3 19 -6 19 C-5.67 20.32 -5.34 21.64 -5 23 C-5.99 23.33 -6.98 23.66 -8 24 C-8 22.35 -8 20.7 -8 19 C-9.32 18.67 -10.64 18.34 -12 18 C-12 16.35 -12 14.7 -12 13 C-9.36 12.67 -6.72 12.34 -4 12 C-4.66 11.01 -5.32 10.02 -6 9 C-7.32 9.33 -8.64 9.66 -10 10 C-9.67 9.01 -9.34 8.02 -9 7 C-7.35 7.33 -5.7 7.66 -4 8 C-3.67 7.01 -3.34 6.02 -3 5 C-2.34 5.33 -1.68 5.66 -1 6 C-1 7.32 -1 8.64 -1 10 C-1.66 10 -2.32 10 -3 10 C-2.01 11.32 -1.02 12.64 0 14 C0 12.68 0 11.36 0 10 C0.99 10.66 1.98 11.32 3 12 C3 10.68 3 9.36 3 8 C2.34 7.67 1.68 7.34 1 7 C0.59270772 4.67843403 0.25561323 2.3431213 0 0 Z " fill="#71A5BD" transform="translate(27,10)"/>
<path d="M0 0 C0.66 0 1.32 0 2 0 C1.67 2.31 1.34 4.62 1 7 C-1 6 -1 6 -4 4 C-4 5.32 -4 6.64 -4 8 C-3.01 8 -2.02 8 -1 8 C-0.95745644 9.99954746 -0.95919217 12.00041636 -1 14 C-2.82116003 15.82116003 -5.30671764 15.1323508 -7.7265625 15.13671875 C-8.47679687 15.13285156 -9.22703125 15.12898438 -10 15.125 C-11.12535156 15.13080078 -11.12535156 15.13080078 -12.2734375 15.13671875 C-17.87338947 15.12661053 -17.87338947 15.12661053 -19 14 C-19.04080783 12.00041636 -19.04254356 9.99954746 -19 8 C-18.34 7.67 -17.68 7.34 -17 7 C-17 7.66 -17 8.32 -17 9 C-14.36 9 -11.72 9 -9 9 C-9 7.68 -9 6.36 -9 5 C-8.43410156 4.72285156 -7.86820313 4.44570313 -7.28515625 4.16015625 C-6.55167969 3.79792969 -5.81820313 3.43570312 -5.0625 3.0625 C-3.96615234 2.52302734 -3.96615234 2.52302734 -2.84765625 1.97265625 C-1.03750973 1.13628173 -1.03750973 1.13628173 0 0 Z " fill="#153D2B" transform="translate(30,24)"/>
<path d="M0 0 C7.92 0.33 15.84 0.66 24 1 C21.86911399 5.26177203 21.2232788 6.16379183 17 8 C12.13388763 8.54067915 10.02661464 8.54236245 5.6875 6.25 C3 4 3 4 0 0 Z " fill="#F4EB0A" transform="translate(7,41)"/>
<path d="M0 0 C1.32 0 2.64 0 4 0 C5.37432457 3.81756824 4.67975039 7.07255329 4 11 C4.99 11.33 5.98 11.66 7 12 C6.67 12.66 6.34 13.32 6 14 C2.20839703 14.05786668 -1.58309311 14.09355054 -5.375 14.125 C-6.99535156 14.15013672 -6.99535156 14.15013672 -8.6484375 14.17578125 C-9.6796875 14.18222656 -10.7109375 14.18867187 -11.7734375 14.1953125 C-13.20308838 14.21102295 -13.20308838 14.21102295 -14.66162109 14.22705078 C-17 14 -17 14 -19 12 C-18.01 11.67 -17.02 11.34 -16 11 C-16.48484276 6.35413108 -16.48484276 6.35413108 -18 2 C-16.68 2.66 -15.36 3.32 -14 4 C-14 5.98 -14 7.96 -14 10 C-8.72 10 -3.44 10 2 10 C2 8.02 2 6.04 2 4 C1.01 4.33 0.02 4.66 -1 5 C-1.33 4.01 -1.66 3.02 -2 2 C-1.34 2 -0.68 2 0 2 C0 1.34 0 0.68 0 0 Z " fill="#C9C8C4" transform="translate(26,28)"/>
<path d="M0 0 C1 1 1 1 1.0625 4.0625 C1.041875 5.031875 1.02125 6.00125 1 7 C1.99 7.33 2.98 7.66 4 8 C3.67 9.65 3.34 11.3 3 13 C2.01 12.34 1.02 11.68 0 11 C0 12.32 0 13.64 0 15 C-1.5 13.625 -1.5 13.625 -3 12 C-3 10 -3 10 -1.5 8.375 C-1.005 7.92125 -0.51 7.4675 0 7 C-0.66 6.67 -1.32 6.34 -2 6 C-2.33 5.67 -2.66 5.34 -3 5 C-3.33 6.32 -3.66 7.64 -4 9 C-4.33 8.34 -4.66 7.68 -5 7 C-4.67 6.01 -4.34 5.02 -4 4 C-3.01 4 -2.02 4 -1 4 C-1 3.34 -1 2.68 -1 2 C-2.32 2.33 -3.64 2.66 -5 3 C-5 2.34 -5 1.68 -5 1 C-5.78375 1.185625 -6.5675 1.37125 -7.375 1.5625 C-10 2 -10 2 -12 1 C-12.19335938 1.61488281 -12.38671875 2.22976562 -12.5859375 2.86328125 C-12.84632812 3.67152344 -13.10671875 4.47976562 -13.375 5.3125 C-13.63023438 6.11300781 -13.88546875 6.91351563 -14.1484375 7.73828125 C-15 10 -15 10 -17 13 C-16.69814573 15.95817184 -16.33281171 18.33437658 -15 21 C-16.32 20.67 -17.64 20.34 -19 20 C-19.16682272 15.07872966 -19.24828052 11.49656104 -17 7 C-16.34 7 -15.68 7 -15 7 C-15 5.02 -15 3.04 -15 1 C-9.78021347 -1.27529157 -5.46747074 -1.13953601 0 0 Z " fill="#18190E" transform="translate(27,10)"/>
<path d="M0 0 C2.31 0 4.62 0 7 0 C7 0.66 7 1.32 7 2 C8.32 1.67 9.64 1.34 11 1 C11 1.66 11 2.32 11 3 C10.01 3 9.02 3 8 3 C8 3.99 8 4.98 8 6 C6.35 6.33 4.7 6.66 3 7 C3.639375 7.103125 4.27875 7.20625 4.9375 7.3125 C5.618125 7.539375 6.29875 7.76625 7 8 C7.33 8.99 7.66 9.98 8 11 C5.36 11.33 2.72 11.66 0 12 C0 9.69 0 7.38 0 5 C-0.66 4.67 -1.32 4.34 -2 4 C-1.34 2.68 -0.68 1.36 0 0 Z " fill="#816F14" transform="translate(15,11)"/>
<path d="M0 0 C2.51815182 1.25907591 2.69260426 2.21474667 3.8125 4.75 C6.48505689 10.2831826 10.31598225 14.48845727 16 17 C22.36324587 17.95448688 25.83440771 16.54740185 31.01171875 12.80078125 C33.92065804 10.16616237 35.36662256 7.55082053 37 4 C37.66 4 38.32 4 39 4 C37.18088007 10.00309576 33.30608055 14.37526143 28.25 17.9375 C23.03020827 19.64397037 18.01046089 20.14886847 12.7890625 18.15625 C7.63941171 15.23614151 3.88386556 11.15478409 1 6 C0.125 2.5 0.125 2.5 0 0 Z " fill="#191A1A" transform="translate(0,33)"/>
<path d="M0 0 C0.66 0 1.32 0 2 0 C2 0.66 2 1.32 2 2 C3.051875 2.103125 4.10375 2.20625 5.1875 2.3125 C11.23560209 3.40314136 11.23560209 3.40314136 14 6 C14.43089621 8.79530105 14.23394046 11.14592635 14 14 C12.68 13.67 11.36 13.34 10 13 C10 11.02 10 9.04 10 7 C8.4176994 6.66179834 6.83410625 6.32964061 5.25 6 C4.36828125 5.814375 3.4865625 5.62875 2.578125 5.4375 C-0.22143965 4.88846325 -0.22143965 4.88846325 -4 5 C-4 4.34 -4 3.68 -4 3 C-2.68 3 -1.36 3 0 3 C0 2.01 0 1.02 0 0 Z " fill="#2F2F16" transform="translate(19,3)"/>
<path d="M0 0 C0.37125 0.515625 0.7425 1.03125 1.125 1.5625 C2.70102118 3.61132753 4.29318187 5.63100409 5.9375 7.625 C6.42089844 8.21539062 6.90429688 8.80578125 7.40234375 9.4140625 C10.38961286 12.3794201 12.68427038 12.96944552 16.875 13.375 C22.05261675 13.24965732 25.17591857 10.702476 28.875 7.25 C29.431875 6.63125 29.431875 6.63125 30 6 C30.33 6.99 30.66 7.98 31 9 C22.14863326 16.64436219 22.14863326 16.64436219 15.21875 16.4375 C9.90284815 15.389294 5.64832309 12.02755004 2.28515625 7.890625 C1.00729201 5.95082001 -0.1521686 4.16343185 -1 2 C-0.67 1.34 -0.34 0.68 0 0 Z " fill="#DCDBB0" transform="translate(3,35)"/>
<path d="M0 0 C0.66 0 1.32 0 2 0 C2 1.98 2 3.96 2 6 C3.32 6.33 4.64 6.66 6 7 C6 11.29 6 15.58 6 20 C5.34 20.33 4.68 20.66 4 21 C4.33 18.69 4.66 16.38 5 14 C3.35 14.33 1.7 14.66 0 15 C-0.33 13.68 -0.66 12.36 -1 11 C-0.01 11 0.98 11 2 11 C2.33 11.33 2.66 11.66 3 12 C3 10.68 3 9.36 3 8 C2.34 7.67 1.68 7.34 1 7 C0.59270772 4.67843403 0.25561323 2.3431213 0 0 Z " fill="#777D5A" transform="translate(27,10)"/>
<path d="M0 0 C1.32 0 2.64 0 4 0 C5.37432457 3.81756824 4.67975039 7.07255329 4 11 C4.99 11.33 5.98 11.66 7 12 C6.67 12.66 6.34 13.32 6 14 C4.68 14 3.36 14 2 14 C2 13.34 2 12.68 2 12 C0.68 12.33 -0.64 12.66 -2 13 C-2 12.34 -2 11.68 -2 11 C-0.68 10.67 0.64 10.34 2 10 C2 8.02 2 6.04 2 4 C1.01 4.33 0.02 4.66 -1 5 C-1.33 4.01 -1.66 3.02 -2 2 C-1.34 2 -0.68 2 0 2 C0 1.34 0 0.68 0 0 Z " fill="#808A73" transform="translate(26,28)"/>
<path d="M0 0 C0.33 0 0.66 0 1 0 C1.33 1.65 1.66 3.3 2 5 C2.99 5.33 3.98 5.66 5 6 C5 7.65 5 9.3 5 11 C2.125 10.8125 2.125 10.8125 -1 10 C-2.375 7.4375 -2.375 7.4375 -3 5 C-2.01 5 -1.02 5 0 5 C0 3.35 0 1.7 0 0 Z " fill="#6E701B" transform="translate(14,23)"/>
<path d="M0 0 C0.37125 0.515625 0.7425 1.03125 1.125 1.5625 C2.70102118 3.61132753 4.29318187 5.63100409 5.9375 7.625 C6.42089844 8.21539062 6.90429688 8.80578125 7.40234375 9.4140625 C9.13766593 11.13665616 10.77069055 12.02738551 13 13 C13 13.66 13 14.32 13 15 C6.15308007 12.84811088 2.65614074 7.82274266 -1 2 C-0.67 1.34 -0.34 0.68 0 0 Z " fill="#E1E0BD" transform="translate(3,35)"/>
<path d="M0 0 C0.33 0.66 0.66 1.32 1 2 C4.02934491 2.65772428 4.02934491 2.65772428 7 3 C6.67 3.66 6.34 4.32 6 5 C4.68 5 3.36 5 2 5 C3.65 5.33 5.3 5.66 7 6 C6.67 6.66 6.34 7.32 6 8 C4.00045254 8.04254356 1.99958364 8.04080783 0 8 C-1 7 -1 7 -1.125 4 C-1 1 -1 1 0 0 Z " fill="#1E1F16" transform="translate(12,31)"/>
<path d="M0 0 C0.66 0.33 1.32 0.66 2 1 C2.04254356 2.99954746 2.04080783 5.00041636 2 7 C1 8 1 8 -2.0625 8.0625 C-3.031875 8.041875 -4.00125 8.02125 -5 8 C-5.33 7.34 -5.66 6.68 -6 6 C-4.02 6 -2.04 6 0 6 C-1.9254644 3.7763932 -1.9254644 3.7763932 -5 3 C-2.625 1.4375 -2.625 1.4375 0 0 Z " fill="#18201A" transform="translate(27,31)"/>
<path d="M0 0 C3.1875 0.875 3.1875 0.875 6 2 C6 2.66 6 3.32 6 4 C0.58264203 4.93402724 -2.80451575 5.20808081 -8 3 C-8 2.67 -8 2.34 -8 2 C-6.8553125 2.061875 -6.8553125 2.061875 -5.6875 2.125 C-2.77281584 2.22080824 -2.77281584 2.22080824 0 0 Z " fill="#49470A" transform="translate(21,33)"/>
<path d="M0 0 C1.65 0.99 3.3 1.98 5 3 C4.67 4.65 4.34 6.3 4 8 C3.01 7.34 2.02 6.68 1 6 C1 7.32 1 8.64 1 10 C-0.5 8.625 -0.5 8.625 -2 7 C-2 5 -2 5 -0.5 3.375 C-0.005 2.92125 0.49 2.4675 1 2 C0.34 1.67 -0.32 1.34 -1 1 C-0.67 0.67 -0.34 0.34 0 0 Z " fill="#193627" transform="translate(26,15)"/>
<path d="M0 0 C0.66 0 1.32 0 2 0 C2 0.66 2 1.32 2 2 C3.11375 2.12375 4.2275 2.2475 5.375 2.375 C9 3 9 3 11 5 C6.05 5 1.1 5 -4 5 C-4 4.34 -4 3.68 -4 3 C-2.68 3 -1.36 3 0 3 C0 2.01 0 1.02 0 0 Z " fill="#3A3B36" transform="translate(19,3)"/>
<path d="M0 0 C1.32 0.66 2.64 1.32 4 2 C4 3.98 4 5.96 4 8 C5.65 8.33 7.3 8.66 9 9 C9 9.33 9 9.66 9 10 C7.35 10 5.7 10 4 10 C4 10.66 4 11.32 4 12 C2.35 11.67 0.7 11.34 -1 11 C-0.67 10.34 -0.34 9.68 0 9 C0.66 9 1.32 9 2 9 C1.51515724 4.35413108 1.51515724 4.35413108 0 0 Z " fill="#929077" transform="translate(8,30)"/>
<path d="M0 0 C1.98 0 3.96 0 6 0 C6 0.66 6 1.32 6 2 C5.34 2 4.68 2 4 2 C4.33 3.98 4.66 5.96 5 8 C4.01 8.33 3.02 8.66 2 9 C1.34 6.03 0.68 3.06 0 0 Z " fill="#50816E" transform="translate(17,25)"/>
<path d="M0 0 C0.66 0.33 1.32 0.66 2 1 C2.680625 1.12375 3.36125 1.2475 4.0625 1.375 C4.701875 1.58125 5.34125 1.7875 6 2 C6.33 2.99 6.66 3.98 7 5 C4.36 5.33 1.72 5.66 -1 6 C-0.67 4.02 -0.34 2.04 0 0 Z " fill="#246B4F" transform="translate(16,17)"/>
<path d="M0 0 C0.33 0.66 0.66 1.32 1 2 C0.2575 3.11375 0.2575 3.11375 -0.5 4.25 C-2.37636224 7.68999744 -1.9908213 9.28442011 -1 13 C-0.67 13.66 -0.34 14.32 0 15 C-1.32 14.67 -2.64 14.34 -4 14 C-4.29787234 5.21276596 -4.29787234 5.21276596 -2 1 C-1.34 0.67 -0.68 0.34 0 0 Z " fill="#28291F" transform="translate(12,16)"/>
<path d="M0 0 C0.66 0.33 1.32 0.66 2 1 C2 2.32 2 3.64 2 5 C1.34 5 0.68 5 0 5 C0.33 5.99 0.66 6.98 1 8 C0.01 7.67 -0.98 7.34 -2 7 C-2.33 6.01 -2.66 5.02 -3 4 C-4.32 4.33 -5.64 4.66 -7 5 C-6.67 4.01 -6.34 3.02 -6 2 C-4.35 2.33 -2.7 2.66 -1 3 C-0.67 2.01 -0.34 1.02 0 0 Z " fill="#538284" transform="translate(24,15)"/>
<path d="M0 0 C1.32 0.33 2.64 0.66 4 1 C4 2.98 4 4.96 4 7 C2.68 7.33 1.36 7.66 0 8 C0 5.36 0 2.72 0 0 Z " fill="#454309" transform="translate(7,9)"/>
<path d="M0 0 C0.99 0.33 1.98 0.66 3 1 C3 2.65 3 4.3 3 6 C1.68 5.67 0.36 5.34 -1 5 C-1.33 6.32 -1.66 7.64 -2 9 C-2.33 8.34 -2.66 7.68 -3 7 C-2.67 6.01 -2.34 5.02 -2 4 C-1.01 4 -0.02 4 1 4 C1 3.34 1 2.68 1 2 C0.34 1.67 -0.32 1.34 -1 1 C-0.67 0.67 -0.34 0.34 0 0 Z " fill="#15221D" transform="translate(25,10)"/>
<path d="M0 0 C0.66 0 1.32 0 2 0 C2.125 6.75 2.125 6.75 1 9 C0.01 8.67 -0.98 8.34 -2 8 C-1.505 6.2984375 -1.505 6.2984375 -1 4.5625 C0.04504273 1.45623361 0.04504273 1.45623361 0 0 Z " fill="#9A9504" transform="translate(13,16)"/>
<path d="M0 0 C1.4606285 2.64738916 2 3.89448334 2 7 C0.68 6.67 -0.64 6.34 -2 6 C-2 4.68 -2 3.36 -2 2 C-1.34 2 -0.68 2 0 2 C0 1.34 0 0.68 0 0 Z " fill="#4B4A10" transform="translate(31,10)"/>
<path d="M0 0 C-0.33 2.31 -0.66 4.62 -1 7 C-3 6 -3 6 -5 3 C-2.25 0 -2.25 0 0 0 Z " fill="#21573A" transform="translate(32,24)"/>
</svg>
